<svg width="128" height="42" viewBox="0 0 128 42" fill="none" xmlns="http://www.w3.org/2000/svg">
<path d="M12.492 20.904L11.952 19.968L13.968 18.816C15.624 17.904 16.452 16.452 16.452 14.46C16.452 10.74 13.62 8.88 7.956 8.88H4.644V33H3.564V7.8H7.956C11.124 7.8 13.512 8.388 15.12 9.564C16.728 10.716 17.532 12.348 17.532 14.46C17.532 16.86 16.524 18.624 14.508 19.752L12.492 20.904ZM32.2332 22.524L37.1292 33H35.9412L30.9012 22.2C30.9492 22.176 31.1532 22.08 31.5132 21.912C31.8972 21.72 32.1612 21.588 32.3052 21.516C32.4492 21.42 32.6892 21.264 33.0252 21.048C33.3612 20.832 33.6132 20.628 33.7812 20.436C33.9492 20.22 34.1292 19.98 34.3212 19.716C34.5372 19.428 34.6932 19.116 34.7892 18.78C34.8852 18.42 34.9332 18.036 34.9332 17.628C34.9332 16.116 34.2132 15 32.7732 14.28C31.3332 13.56 29.5452 13.2 27.4092 13.2H24.5292V33H23.4492V12.12H27.4092C30.2412 12.12 32.3772 12.612 33.8172 13.596C35.2812 14.58 36.0132 15.924 36.0132 17.628C36.0132 18.732 35.6412 19.716 34.8972 20.58C34.1532 21.42 33.2652 22.068 32.2332 22.524ZM46.4757 31.92H60.3717V13.632L52.2717 21.732L44.1717 13.632V33L43.0917 32.964V12.12H44.1717L52.2717 20.22L60.3717 12.12H61.4517V33L46.4757 32.964V31.92ZM69.3787 33V12.12H70.4587L82.1947 31.02V12.12H83.2747V33H82.1947L70.4587 14.064V33H69.3787ZM93.1089 31.92H104.845L97.4649 14.532L89.6169 33H88.4649L97.4649 11.76L106.465 33H93.1089V31.92ZM113.56 31.92H125.296L117.916 14.532L110.068 33H108.916L117.916 11.76L126.916 33H113.56V31.92Z" fill="white"/>
</svg>
